<?xml version="1.0" encoding="UTF-8"?>
<svg fill="none" viewBox="0 0 902 490" xmlns="http://www.w3.org/2000/svg">
<g clip-path="url(#a)">
<path d="m98.356 327.4s-8.5544-48.582-40.289-72.666c-13.313-10.103-23.077-23.837-27.31-39.494-2.0063-7.412-3.2909-15.002-3.8356-22.663" stroke="#535461" stroke-miterlimit="10" stroke-width="2"/>
<path d="m7.0186 177.28c2.6737 5.211 20.371 15.745 20.371 15.745s2.2281-19.679-0.4377-24.89c-2.6657-5.211-9.2944-7.39-14.801-4.86-5.5066 2.53-7.7984 8.802-5.1326 14.005z" fill="#6C63FF"/>
<path d="m5.3714 213.71c5.2361 3.001 26.141 2.729 26.141 2.729s-9.4297-17.668-14.706-20.668c-2.5111-1.447-5.4753-1.887-8.2966-1.231-2.8212 0.656-5.2902 2.359-6.9104 4.766-0.74621 1.18-1.2418 2.502-1.4557 3.883-0.21394 1.381-0.14167 2.792 0.21229 4.143 0.35396 1.352 0.98201 2.616 1.8449 3.713 0.86292 1.098 1.9422 2.005 3.1704 2.665z" fill="#6C63FF"/>
<path d="m31.321 262.7c6.1115 0.088 24.016-10.135 24.016-10.135s-17.562-10.765-23.706-10.837c-6.1433-0.072-11.141 4.533-11.244 10.326-0.1034 5.794 4.8144 10.55 10.934 10.646z" fill="#6C63FF"/>
<path d="m59.793 295.57c6.0159 1.069 25.464-6.145 25.464-6.145s-15.398-13.399-21.406-14.468c-6.008-1.069-11.801 2.681-12.923 8.379-1.122 5.698 2.8568 11.132 8.8648 12.234z" fill="#6C63FF"/>
<path d="m52.91 207.85c-2.0849 5.442-18.549 17.644-18.549 17.644s-4.3209-19.36-2.2679-24.802c2.0531-5.443 8.443-8.252 14.188-6.281s8.7215 7.996 6.6287 13.439z" fill="#6C63FF"/>
<path d="m85.743 246.7c-3.7162 4.596-23.276 11.579-23.276 11.579s1.9576-19.711 5.6738-24.307c1.8617-2.231 4.4953-3.674 7.373-4.039 2.8777-0.366 5.7868 0.373 8.1443 2.067 1.1446 0.793 2.1133 1.814 2.8449 3 0.7317 1.186 1.2106 2.512 1.4064 3.892 0.1959 1.381 0.1045 2.788-0.2684 4.131-0.3728 1.344-1.0191 2.596-1.898 3.677z" fill="#6C63FF"/>
<path d="m112.1 288.59c-2.84 5.123-20.872 15.162-20.872 15.162s-1.5915-19.734 1.2494-24.866c1.4671-2.5 3.8265-4.348 6.6009-5.171 2.774-0.822 5.757-0.557 8.343 0.742 1.263 0.586 2.393 1.426 3.319 2.466 0.927 1.041 1.632 2.261 2.07 3.586 0.438 1.324 0.602 2.724 0.48 4.114s-0.527 2.74-1.19 3.967z" fill="#6C63FF"/>
<path d="m7.0186 177.28c2.6737 5.211 20.371 15.745 20.371 15.745s2.2281-19.679-0.4377-24.89c-2.6657-5.211-9.2944-7.39-14.801-4.86-5.5066 2.53-7.7984 8.802-5.1326 14.005z" fill="#000" opacity=".25"/>
<path d="m5.3714 213.71c5.2361 3.001 26.141 2.729 26.141 2.729s-9.4297-17.668-14.706-20.668c-2.5111-1.447-5.4753-1.887-8.2966-1.231-2.8212 0.656-5.2902 2.359-6.9104 4.766-0.74621 1.18-1.2418 2.502-1.4557 3.883-0.21394 1.381-0.14167 2.792 0.21229 4.143 0.35396 1.352 0.98201 2.616 1.8449 3.713 0.86292 1.098 1.9422 2.005 3.1704 2.665z" fill="#000" opacity=".25"/>
<path d="m31.321 262.7c6.1115 0.088 24.016-10.135 24.016-10.135s-17.562-10.765-23.706-10.837c-6.1433-0.072-11.141 4.533-11.244 10.326-0.1034 5.794 4.8144 10.55 10.934 10.646z" fill="#000" opacity=".25"/>
<path d="m59.793 295.57c6.0159 1.069 25.464-6.145 25.464-6.145s-15.398-13.399-21.406-14.468c-6.008-1.069-11.801 2.681-12.923 8.379-1.122 5.698 2.8568 11.132 8.8648 12.234z" fill="#000" opacity=".25"/>
<path d="m52.91 207.85c-2.0849 5.442-18.549 17.644-18.549 17.644s-4.3209-19.36-2.2679-24.802c2.0531-5.443 8.443-8.252 14.188-6.281s8.7215 7.996 6.6287 13.439z" fill="#000" opacity=".25"/>
<path d="m85.743 246.7c-3.7162 4.596-23.276 11.579-23.276 11.579s1.9576-19.711 5.6738-24.307c1.8617-2.231 4.4953-3.674 7.373-4.039 2.8777-0.366 5.7868 0.373 8.1443 2.067 1.1446 0.793 2.1133 1.814 2.8449 3 0.7317 1.186 1.2106 2.512 1.4064 3.892 0.1959 1.381 0.1045 2.788-0.2684 4.131-0.3728 1.344-1.0191 2.596-1.898 3.677z" fill="#000" opacity=".25"/>
<path d="m112.1 288.59c-2.84 5.123-20.872 15.162-20.872 15.162s-1.5915-19.734 1.2494-24.866c1.4671-2.5 3.8265-4.348 6.6009-5.171 2.774-0.822 5.757-0.557 8.343 0.742 1.263 0.586 2.393 1.426 3.319 2.466 0.927 1.041 1.632 2.261 2.07 3.586 0.438 1.324 0.602 2.724 0.48 4.114s-0.527 2.74-1.19 3.967z" fill="#000" opacity=".25"/>
<path d="m97.282 326.12s12.978-47.696-5.7295-81.891c-7.8541-14.364-10.878-30.644-8.069-46.58 1.3631-7.581 3.4524-15.013 6.2388-22.192" stroke="#535461" stroke-miterlimit="10" stroke-width="2"/>
<path d="m78.024 153.85c0.2148 5.785 11.889 22.208 11.889 22.208s10.464-17.141 10.249-22.935c-0.2148-5.793-5.3315-10.31-11.451-10.118-6.1194 0.191-10.926 5.059-10.687 10.845z" fill="#6C63FF"/>
<path d="m60.899 186.5c3.4934 4.748 22.727 12.521 22.727 12.521s-1.0663-19.767-4.5597-24.523c-1.7697-2.304-4.3421-3.852-7.202-4.335-2.8598-0.482-5.7958 0.137-8.2198 1.734-1.1784 0.742-2.1912 1.72-2.9748 2.873s-1.3212 2.456-1.579 3.827-0.2302 2.781 0.081 4.141 0.8993 2.641 1.7275 3.762z" fill="#6C63FF"/>
<path d="m63.684 241.25c5.5703 2.394 26.3-0.048 26.3-0.048s-11.459-16.558-17.013-18.992-12.127-0.136-14.698 5.123-0.1433 11.491 5.4111 13.917z" fill="#6C63FF"/>
<path d="m75.653 282.23c5.0371 3.28 25.926 4.158 25.926 4.158s-8.34-18.155-13.377-21.443c-2.4326-1.581-5.3712-2.181-8.2268-1.681s-5.4171 2.064-7.1712 4.378c-0.8231 1.127-1.4046 2.412-1.7079 3.775-0.3032 1.363-0.3216 2.774-0.0539 4.145 0.2676 1.37 0.8155 2.671 1.609 3.818 0.7936 1.148 1.8156 2.118 3.0017 2.85z" fill="#6C63FF"/>
<path d="m106.9 199.39c-4.233 4.174-24.509 9.017-24.509 9.017s4.3051-19.375 8.5465-23.549c2.0941-2.013 4.8679-3.162 7.7687-3.217 2.901-0.054 5.716 0.989 7.884 2.922 1.042 0.922 1.882 2.051 2.467 3.315 0.584 1.265 0.901 2.637 0.931 4.03 0.029 1.394-0.231 2.778-0.762 4.066-0.531 1.287-1.323 2.451-2.326 3.416z" fill="#6C63FF"/>
<path d="m120.26 247.48c-5.363 2.785-26.26 1.668-26.26 1.668s10.225-17.269 15.589-20.054c2.564-1.349 5.543-1.67 8.334-0.898 2.792 0.772 5.186 2.579 6.698 5.055 0.694 1.21 1.133 2.551 1.289 3.939 0.156 1.387 0.025 2.792-0.384 4.127-0.409 1.334-1.088 2.57-1.994 3.631-0.906 1.06-2.02 1.922-3.272 2.532z" fill="#6C63FF"/>
<path d="m126.45 295.91c-4.775 3.607-25.568 5.833-25.568 5.833s7.003-18.649 11.793-22.248c2.328-1.736 5.224-2.528 8.108-2.215 2.884 0.312 5.545 1.704 7.449 3.899 0.901 1.061 1.573 2.299 1.973 3.634 0.401 1.335 0.521 2.739 0.353 4.123-0.167 1.384-0.619 2.718-1.326 3.918s-1.654 2.241-2.782 3.056z" fill="#6C63FF"/>
<path d="m890.07 444.79c-3.392 3.944-7.278 7.431-11.563 10.374-19.4 13.446-47.005 19.009-73.743 22.52-5.947 0.782-11.912 1.487-17.896 2.114-37.067 3.943-74.65 5.259-112.2 6.233-5.38 0.144-10.762 0.279-16.146 0.407-37.87 0.934-75.772 1.867-113.67 2.546-45.494 0.798-90.995 1.268-136.46 0.909-44.634-0.343-89.228-1.452-133.75-3.766-4.281-0.213-8.56-0.445-12.836-0.695-38.992-2.226-78.652-5.586-115.93-13.51-19.316-3.969-38.25-9.622-56.586-16.894-14.324-5.809-28.066-12.991-39.096-21.642-8.5942-6.743-15.549-14.364-19.894-22.95-9.9709-19.735-4.703-41.92 6.7082-61.263 11.411-19.344 28.544-36.709 43.321-54.871 31.504-38.743 52.05-87.677 22.981-127.37-8.3552-11.404-20.443-21.411-27.246-33.317-9.7878-17.149-7.687-36.437-4.114-54.759 4.7745-24.339 13.6-50.586 40.958-65.788 28.441-15.8 68.801-15.002 104.09-9.3526 52.441 8.395 101.06 25.536 149.86 41.496l0.517 0.1675 6.27 2.0429 2.801 0.9018c4.091 1.3247 8.199 2.6334 12.327 3.9262l1.504 0.4628h0.111l0.637 0.1995 0.589 0.1756 0.994 0.3192c5.093 1.596 10.21 3.1415 15.35 4.6364h0.104c0.716 0.2155 1.424 0.4229 2.14 0.6224h0.048c2.934 0.8619 5.873 1.7025 8.817 2.5217l1.011 0.2873 0.183 0.0479h0.111c36.804 10.246 74.841 18.011 114.18 19.152 49.631 1.4444 107.54-9.3287 140.49-37.315 31.997-27.196 92.149-29.263 135.52-12.832 41.38 15.665 68.149 48.83 66.128 81.947-2.929 48.208-58.608 85.219-91.823 127.39-15.477 19.663-26.419 43.284-15.764 64.487 19.361 38.52 95.921 47.433 123.61 83.32 13.536 17.62 11.905 40.155-2.649 57.113z" fill="#6C63FF" opacity=".1"/>
<path d="m248.87 344.67-102.97 127.23c-19.316-3.969-38.25-9.622-56.586-16.894-14.324-5.809-28.066-12.991-39.096-21.642l113.08-93.087 85.575 4.389z" fill="#65617D"/>
<path d="m890.07 444.79c-3.392 3.944-7.278 7.431-11.563 10.374-19.4 13.446-47.005 19.009-73.743 22.52-5.947 0.782-11.912 1.487-17.896 2.114l-109.37-135.13 85.607-4.389 126.96 104.52z" fill="#65617D"/>
<path d="m415.75 347.29-0.183 3.584-0.056 0.989-3.899 75.811v0.095l-0.406 8.747-0.207 3.918-2.538 49.476c-44.634-0.343-89.229-1.452-133.75-3.766l56.347-138.81 84.693-0.04z" fill="#65617D"/>
<path d="m674.69 485.99c-5.38 0.144-10.762 0.279-16.146 0.407-37.87 0.934-75.772 1.867-113.67 2.546l-44.396-141.66h82.99l91.218 138.7z" fill="#65617D"/>
<path d="m248.87 344.67-102.97 127.23c-19.316-3.969-38.25-9.622-56.586-16.894-14.324-5.809-28.066-12.991-39.096-21.642l113.08-93.087 85.575 4.389z" fill="#000" opacity=".1"/>
<path d="m890.07 444.79c-3.392 3.944-7.278 7.431-11.563 10.374-19.4 13.446-47.005 19.009-73.743 22.52-5.947 0.782-11.912 1.487-17.896 2.114l-109.37-135.13 85.607-4.389 126.96 104.52z" fill="#000" opacity=".1"/>
<path d="m415.75 347.29-0.183 3.584-0.056 0.989-3.899 75.811v0.095l-0.406 8.747-0.207 3.918-2.538 49.476c-44.634-0.343-89.229-1.452-133.75-3.766l56.347-138.81 84.693-0.04z" fill="#000" opacity=".1"/>
<path d="m674.69 485.99c-5.38 0.144-10.762 0.279-16.146 0.407-37.87 0.934-75.772 1.867-113.67 2.546l-44.396-141.66h82.99l91.218 138.7z" fill="#000" opacity=".1"/>
<path d="m467.9 425.35c-2.3-0.104-14.857 5.218-14.857 5.218s-3.979 2.227-14.141 3.655c-6.636 0.942-7.519-2.266-7.336-4.604 0.062-0.767 0.231-1.522 0.501-2.243v-14.148s20.69-12.665 22.281-13.463c0.201-0.088 0.418-0.134 0.637-0.135 2.554-0.104 9.875 2.505 13.83 5.306 4.369 3.105 9.931 1.205 9.931 1.205s10.791-8.722 13.631-2.338c0.169 0.367 0.299 0.749 0.39 1.141 2.077 8.435-22.559 20.477-24.867 20.406z" fill="#3F3D56"/>
<path d="m432.06 416.62v-3.399s20.69-12.665 22.281-13.463c0.201-0.088 0.417-0.134 0.637-0.135 0.947 0.981 1.798 1.859 2.307 2.394 1.504 1.516-12.222 18.785-25.225 14.603z" fill="#000" opacity=".1"/>
<path d="m428.89 414.17-1.902-8.578s0-7.414-2.626-8.85-9.78-51.2-9.78-51.2 0.239-10.997-1.671-12.433c-1.91-1.437 0-3.017 0-3.017-7e-3 -1.583-0.293-3.152-0.843-4.636-0.627-1.614-1.062-3.296-1.298-5.011 0 0 0.955-3.592 0-4.541-0.668-0.67 0.183-1.923-1.376-4.429-1.006-1.489-2.23-2.818-3.629-3.942-5.403-4.581-0.072-56.467 1.393-69.802 0.222-1.987 0.358-3.112 0.358-3.112h12.732l1.591 5.738 2.539 10.605s1.671 1.109 1.671 2.546c0 1.436 10.011 31.792 10.011 31.792 0.734 1.223 1.372 2.501 1.909 3.823 0.239 0.957 2.388 2.633 2.388 2.633-0.41 0.901-0.621 1.879-0.621 2.869s0.211 1.968 0.621 2.869c1.424 2.865 5.482 14.819 4.05 20.556-1.432 5.738-3.103 6.217-3.103 6.217s-1.425 4.245 0.955 5.825c2.379 1.58 0.716 4.453 0.716 4.453l3.103 26.781s-0.238 11.971 3.334 16.256c3.573 4.285 4.051 14.579 4.051 14.579l-2.69 1.149-0.485 0.216-0.159 0.072s5.482 5.737 7.161 7.413c1.68 1.676-14.578 21.778-28.4 13.159z" fill="#65617D"/>
<path d="m457.26 401.04c-1.441 4.325-15.916 19.95-28.369 12.186l-1.902-8.579c3.406-2.769 14.029-10.853 23.276-12.05l-0.159 0.072 0.644 0.67-0.485 0.216-0.159 0.072s5.483 5.737 7.154 7.413z" fill="#000" opacity=".1"/>
<path d="m428.89 414.17-1.902-8.578c3.406-2.769 14.029-10.853 23.276-12.05l-0.159 0.072s5.483 5.737 7.162 7.413-14.555 21.762-28.377 13.143z" fill="#65617D"/>
<path d="m464.8 407.33c0.33 0 0.597-0.267 0.597-0.598s-0.267-0.599-0.597-0.599c-0.329 0-0.596 0.268-0.596 0.599s0.267 0.598 0.596 0.598z" fill="#fff"/>
<path d="m460.91 406.74c0.33 0 0.597-0.268 0.597-0.599 0-0.33-0.267-0.598-0.597-0.598-0.329 0-0.597 0.268-0.597 0.598 0 0.331 0.268 0.599 0.597 0.599z" fill="#fff"/>
<path d="m468.14 407.92c0.329 0 0.596-0.268 0.596-0.599 0-0.33-0.267-0.598-0.596-0.598-0.33 0-0.597 0.268-0.597 0.598 0 0.331 0.267 0.599 0.597 0.599z" fill="#fff"/>
<path d="m456.78 406.14c0.33 0 0.597-0.267 0.597-0.598s-0.267-0.599-0.597-0.599c-0.329 0-0.597 0.268-0.597 0.599s0.268 0.598 0.597 0.598z" fill="#fff"/>
<path d="m467.9 425.35c-2.3-0.104-14.857 5.218-14.857 5.218s-3.979 2.227-14.141 3.655c-6.636 0.942-7.519-2.266-7.336-4.604 1.68 0.761 3.576 0.897 5.347 0.383 4.528-1.189 20.188-3.703 20.188-3.703s10.345-3.782 10.648-5.937l24.628-16.559c0.169 0.367 0.299 0.749 0.39 1.141 2.077 8.435-22.559 20.477-24.867 20.406z" fill="#000" opacity=".1"/>
<path d="m456.28 237.7h-5.722v184.32h5.722v-184.32z" fill="#6C63FF"/>
<path d="m455.84 239.81c0.185-1.847 1.022-3.566 2.362-4.846 1.339-1.281 3.092-2.038 4.94-2.134 1.848-0.097 3.669 0.474 5.134 1.608s2.476 2.757 2.851 4.574c0.675 0.444 1.309 0.949 1.894 1.508 0.306 0.284 0.691 0.466 1.105 0.523 0.413 0.056 0.833-0.017 1.203-0.209 0.371-0.192 0.673-0.493 0.867-0.864 0.193-0.37 0.268-0.791 0.215-1.205-5e-3 -0.046-5e-3 -0.091 0-0.136-0.263-1.852-0.92-3.626-1.927-5.2-1.007-1.575-2.34-2.914-3.909-3.926-1.569-1.011-3.337-1.673-5.183-1.939-1.847-0.265-3.729-0.129-5.518 0.399-1.789 0.529-3.444 1.437-4.852 2.664s-2.536 2.744-3.308 4.447c-0.771 1.703-1.168 3.553-1.163 5.423 4e-3 1.871 0.411 3.719 1.191 5.418 0.752-2.388 2.175-4.508 4.098-6.105z" fill="#6C63FF"/>
<path d="m458.42 415.45h-9.652v13.51h9.652v-13.51z" fill="#6C63FF"/>
<path d="m407.83 74.47c-1.996 2.593-3.605 5.4641-4.774 8.5227-3.788 10.023-0.947 18.098-0.947 18.098s-34.489-7.6524-31.146-11.475c2.021-2.3222 3.692-11.252 4.695-17.923 0.652-4.3491 1.026-7.7407 1.026-7.7407s41.475-3.0244 31.146 10.518z" fill="#FABDBD"/>
<path d="m417.73 433.33c-0.425 2.346-1.652 4.47-3.469 6.009-2.626 2.226-27.653 3.024-32.738 1.117-5.085-1.908-21.294-2.634-25.353-2.793-4.058-0.16-5.634-3.903-6.517-5.738-0.247-0.527-0.063-1.684 0.35-3.072 1.011-3.408 3.366-8.212 3.868-8.722 0.382-0.384 0.748-1.948 0.994-3.32 0.215-1.189 0.358-2.235 0.358-2.235 10.878 7.438 25.186-5.203 25.186-5.203 0.536-0.287 1.148-0.398 1.751-0.319 2.737 0.335 5.721 3.934 5.721 5.522 0 1.94 7.544 5.586 7.544 5.586 2.149 2.474 11.682 7.095 11.682 7.095s6.517 0.159 9.382 2.625c0.48 0.423 0.846 0.961 1.063 1.564s0.278 1.251 0.178 1.884z" fill="#3F3D56"/>
<path d="m417.73 433.33c-0.425 2.346-1.652 4.47-3.469 6.009-2.626 2.226-27.653 3.024-32.738 1.117s-21.294-2.634-25.353-2.793c-4.058-0.16-5.634-3.903-6.517-5.738-0.247-0.527-0.063-1.684 0.35-3.072 3.572 0.879 7.092 1.958 10.544 3.232 5.085 1.995 15.653 4.86 17.507 3.99-0.032 0.024 25.042 7.038 39.676-2.745z" fill="#000" opacity=".1"/>
<path d="m409.39 311.5c-1.006-1.489-2.23-2.818-3.629-3.942-5.403-4.581-0.072-56.467 1.393-69.802 6.246-0.351 10.623-0.231 10.997 0.71 1.289 3.232-7.058 61.367-8.761 73.034z" fill="#000" opacity=".1"/>
<path d="m382.16 409.08v2.697c-17.507 18.011-24.509 11.851-27.295 5.044 0.215-1.189 0.359-2.235 0.359-2.235 10.878 7.438 25.185-5.203 25.185-5.203 0.538-0.281 1.15-0.387 1.751-0.303z" fill="#000" opacity=".1"/>
<path d="m416.78 242.68c-1.034 16.024-9.087 70.855-9.087 70.855s-4.528 20.078-5.483 20.796-6.907 4.788-6.907 4.788-0.239 9.329-2.149 11.97c-1.909 2.641-2.626 9.329-2.626 9.329s-3.095 13.382-4.05 20.077c-0.955 6.696-4.289 15.777-4.289 15.777v14.588c-22.011 22.639-27.43 7.086-28.703 0.063-0.185-0.97-0.313-1.951-0.382-2.936l12.398-75.539s2.618-3.591 2.14-5.499c-0.477-1.907 0.955-4.309 0.955-4.309l-0.04-4.301s2.905-3.823 0-5.977c-2.904-2.155 0-18.41 0-18.41s-3.294-9.321-1.591-11.97c1.703-2.65 0-6.935 1.186-9.329 1.185-2.394 0 0-4.29-6.456-2.244-3.368-4.153-9.472-5.474-14.532-1.21-4.652-1.918-8.419-1.918-8.419s58.886-8.363 60.318-4.788c0.182 1.402 0.179 2.821-8e-3 4.222z" fill="#65617D"/>
<path d="m407.83 74.47c-1.996 2.593-3.604 5.4641-4.774 8.5227-2.257 0.718-4.611 1.0814-6.979 1.0773-8.483 0-13.186-6.2644-17.189-13.103-0.183-0.3112-3.063 1.0454-3.23 0.7262 0.652-4.3491 1.026-7.7407 1.026-7.7407s41.475-3.0244 31.146 10.518z" fill="#000" opacity=".1"/>
<path d="m419.11 60.489c8e-3 5.3876-1.86 10.609-5.28 14.764-3.42 4.155-8.178 6.9833-13.455 7.997-5.276 1.0138-10.74 0.1497-15.449-2.4435s-8.369-6.7528-10.348-11.762c-1.978-5.009-2.152-10.553-0.492-15.677 1.661-5.1238 5.052-9.506 9.59-12.391 4.537-2.885 9.936-4.0921 15.265-3.4131 5.33 0.679 10.256 3.2015 13.93 7.1326 4.004 4.2787 6.235 9.9249 6.239 15.793z" fill="#FABDBD"/>
<path d="m416.78 242.68c-7.782 1.372-21.923 4.062-23.077 5.674-1.591 2.226-13.527 2.864-20.689 3.822-4.114 0.551-10.146 0.096-14.69-0.511-1.21-4.652-1.918-8.419-1.918-8.419s58.886-8.363 60.319-4.788c0.203 1.399 0.221 2.818 0.055 4.222z" fill="#000" opacity=".1"/>
<path d="m421.82 240.38s-26.523 4.301-28.115 6.535c-1.591 2.235-13.527 2.865-20.689 3.823-7.162 0.957-20.022-1.118-20.977-1.756-5.57-3.727-2.864-47.489-0.477-52.916 2.387-5.426 1.592-35.695-0.637-47.808-2.228-12.114 1.114-27.252 1.114-27.252s3.335-10.678 2.706-12.912 3.183-7.007 3.183-7.007 5.881-9.7272 8.897-11.172c0.552-0.2662 1.042-0.6484 1.434-1.1206 0.393-0.4722 0.68-1.0235 0.842-1.6166 0.565-1.7636 0.493-3.99 0.588-5.8653 0.16-3.1921 3.335-3.1921 3.335-3.1921 9.063 1.4285 30.358 14.819 30.358 14.819-0.796 3.0245 4.289 11.635 4.289 11.635 0.087 0.135 0.159 0.279 0.239 0.431 5.57 10.525 9.62 42.757 9.62 42.757s0.279 15.393 0.231 26.725c0 5.658-0.135 10.302-0.398 11.523-0.461 2.171 0.454 12.25 1.385 21.842 0.636 6.631 1.289 13.023 1.488 16.407 0.525 8.307 1.584 16.12 1.584 16.12z" fill="#6C63FF"/>
<path d="m398.61 196.4s-7.162 17.213-5.244 19.759 5.244-19.759 5.244-19.759z" fill="#000" opacity=".1"/>
<path d="m407.51 204.68s-8.101 12.768-5.085 15.297c3.016 2.53 5.085-15.297 5.085-15.297z" fill="#000" opacity=".1"/>
<path d="m382.16 406.06v4.301c-22.011 22.639-27.43 7.086-28.703 0.064 4.003 3.447 13.186 7.74 28.703-4.365z" fill="#000" opacity=".1"/>
<path d="m382.16 406.54v4.302c-22.011 22.639-27.43 7.086-28.703 0.064 4.003 3.447 13.186 7.74 28.703-4.366z" fill="#65617D"/>
<path d="m379.54 418.77c0.329 0 0.597-0.268 0.597-0.599 0-0.33-0.268-0.598-0.597-0.598-0.33 0-0.597 0.268-0.597 0.598 0 0.331 0.267 0.599 0.597 0.599z" fill="#fff"/>
<path d="m389.31 424.78c0.329 0 0.597-0.268 0.597-0.599 0-0.33-0.268-0.598-0.597-0.598-0.33 0-0.597 0.268-0.597 0.598 0 0.331 0.267 0.599 0.597 0.599z" fill="#fff"/>
<path d="m385.57 422.31c0.329 0 0.597-0.268 0.597-0.598 0-0.331-0.268-0.599-0.597-0.599-0.33 0-0.597 0.268-0.597 0.599 0 0.33 0.267 0.598 0.597 0.598z" fill="#fff"/>
<path d="m392.33 426.86c0.329 0 0.597-0.268 0.597-0.599 0-0.33-0.268-0.598-0.597-0.598-0.33 0-0.597 0.268-0.597 0.598 0 0.331 0.267 0.599 0.597 0.599z" fill="#fff"/>
<path d="m382.76 420.53c0.329 0 0.597-0.268 0.597-0.599s-0.268-0.598-0.597-0.598c-0.33 0-0.597 0.267-0.597 0.598s0.267 0.599 0.597 0.599z" fill="#fff"/>
<path d="m386.69 265.56s-5.746 14.444-12.557 14.986c-6.812 0.543 12.557-14.986 12.557-14.986z" fill="#000" opacity=".1"/>
<path d="m387.65 287.56s-9.064 15.457-11.762 15.617c-2.697 0.159 11.762-15.617 11.762-15.617z" fill="#000" opacity=".1"/>
<path d="m392.33 339.51s-11.236 5.897-8.674 6.384 8.674-6.384 8.674-6.384z" fill="#000" opacity=".1"/>
<path d="m370 339.51s11.292-4.62 13.273-4.62-13.273 4.62-13.273 4.62z" fill="#000" opacity=".1"/>
<path d="m431.55 320.71s7.75-1.915 8.069 0c0.318 1.915-8.069 0-8.069 0z" fill="#000" opacity=".1"/>
<path d="m438.98 330.13s-6.835 0.144-5.881 2.394c0.955 2.251 5.881-2.394 5.881-2.394z" fill="#000" opacity=".1"/>
<path d="m407.91 105.98c-5.873-2.306-16.114-6.7509-20.738-11.276-4.623-4.5247-13.106-6.0169-18.071-6.5596 0.565-1.7636 0.493-3.99 0.588-5.8653 0.16-3.1921 3.335-3.1921 3.335-3.1921 9.063 1.4285 30.358 14.819 30.358 14.819-0.796 3.0245 4.289 11.635 4.289 11.635 0.088 0.144 0.159 0.288 0.239 0.439z" fill="#000" opacity=".1"/>
<path d="m407.91 105.03c-5.873-2.307-16.114-6.7515-20.738-11.268-4.623-4.5167-13.106-6.025-18.071-6.5676 0.565-1.7636 0.493-3.99 0.588-5.8654 0.16-3.192 3.335-3.192 3.335-3.192 9.063 1.4285 30.358 14.819 30.358 14.819-0.796 3.0245 4.289 11.635 4.289 11.635 0.088 0.143 0.159 0.287 0.239 0.439z" fill="#6C63FF"/>
<path d="m418.74 207.87c-9.438-6.145-22.671-16.567-22.671-17.213 0-0.798-5.411-6.696-5.411-6.696l-10.648-19.399-3.334-7.98 9.549-10.039 20.825 13.382 5.571 10.199c1.848 1.315 3.576 2.792 5.164 4.413 0 5.658-0.135 10.302-0.398 11.523-0.493 2.139 0.422 12.218 1.353 21.81z" fill="#000" opacity=".1"/>
<path d="m377.16 154.64 2.856 9.927 11.141 17.484s5.403 5.898 5.403 6.696 19.894 16.255 28.289 20.556c8.396 4.301 19.099 7.837 19.894 10.933 0.796 3.096 5.571 26.206 19.099 18.713 13.527-7.493-3.812-24.387-3.812-24.387l-11.141-9.879s-23.769-18.65-25.79-24.858c-2.021-6.209-9.971-11.635-9.971-11.635l-5.57-10.207-20.817-13.382-9.581 10.039z" fill="#FABDBD"/>
<path d="m373.18 102.04s-19.385 8.93-13.345 23.142c6.04 14.213 19.225 40.371 19.225 40.371s-1.583-9.137 1.91-9.935c3.494-0.798 26.937 3.12 26.937 3.12s-6.438-10.613-5.324-16.67-8.419-45.287-29.403-40.028z" fill="#000" opacity=".1"/>
<path d="m375.09 100.61s-19.385 8.921-13.353 23.086 19.233 40.387 19.233 40.387-1.591-9.129 1.91-9.927 25.584 3.344 25.584 3.344-5.085-10.837-3.979-16.894-8.395-45.263-29.395-39.996z" fill="#000" opacity=".1"/>
<path d="m374.13 101.08s-19.385 8.93-13.345 23.143c6.04 14.212 19.225 40.371 19.225 40.371s-1.591-9.129 1.91-9.927c3.502-0.798 25.584 3.343 25.584 3.343s-5.085-10.837-3.979-16.894c1.106-6.056-8.411-45.294-29.395-40.036z" fill="#6C63FF"/>
<path d="m412.87 44.696c-2.697 0.8938-5.57 1.4125-7.957 0.0639-1.648-0.9177-2.889-2.6414-4.775-3.0005-1.695-0.3272-3.43 0.6544-4.52 1.995-1.013 1.4111-1.817 2.962-2.387 4.6045-1.204 2.8694-2.675 5.6188-4.393 8.2115-1.066 1.596-2.482 3.2878-4.392 3.3676-2.618 0.1197-4.385-2.7771-6.915-3.4793-6.183-1.7317-2.61 5.0992-1.703 7.6768 0.896 2.5441 1.212 5.2575 0.923 7.9401-0.204 0.0475-0.412 0.0795-0.621 0.0958-2.818-4.909-3.743-10.684-2.6-16.231s4.276-10.481 8.804-13.868 10.137-4.9895 15.765-4.506c5.628 0.4836 10.884 3.0202 14.771 7.1294z" fill="#000" opacity=".1"/>
<path d="m377.1 55.964c2.522 0.7023 4.289 3.599 6.907 3.4873 1.918-0.0878 3.334-1.7716 4.393-3.3756 1.718-2.5841 3.189-5.3255 4.392-8.1875 0.57-1.6425 1.374-3.1934 2.388-4.6045 1.098-1.3407 2.824-2.3222 4.519-1.995 1.847 0.3591 3.088 2.0828 4.775 3.0005 3.008 1.6838 6.748 0.4628 9.963-0.798 1.591-0.6065 3.334-1.4843 3.605-3.1282 0.191-1.1571-0.47-2.3222-0.319-3.4873 0.152-1.1651 1.011-1.9791 1.592-2.9367s0.915-2.3381 0.095-3.1122c-0.596-0.5586-1.528-0.5187-2.291-0.798-1.902-0.7422-2.388-3.3038-4.083-4.4529-1.83-1.2369-4.273-0.407-6.485-0.3032-3.183 0.1436-6.151-1.3247-9.104-2.4978-2.952-1.1731-6.318-2.0748-9.238-0.8459-1.743 0.7422-3.096 2.1387-4.576 3.3197-2.895 2.2857-6.35 3.7467-10.003 4.2295-1.798 0.2394-3.764 0.2793-5.18 1.4045-1.782 1.4204-2.053 4.0379-1.711 6.2962 0.342 2.2584 1.138 4.4768 0.955 6.7432-0.286 3.599-2.968 6.5596-3.859 10.055-0.198 0.5576-0.266 1.1532-0.198 1.7412 0.067 0.5879 0.268 1.1525 0.588 1.6503 0.529 0.5291 1.139 0.9708 1.806 1.3087 0.854 0.5581 1.576 1.2977 2.114 2.1665 0.537 0.8688 0.878 1.8455 0.997 2.861 0.12 1.0294 0 2.0748 0.159 3.0962 0.318 1.5623 1.233 2.938 2.549 3.8327 1.316 0.8948 2.929 1.2377 4.494 0.9554 0.285-2.6826-0.03-5.3952-0.923-7.9402-0.939-2.5855-4.504-9.3766 1.679-7.6848z" fill="#7C5C5C"/>
<g fill="#000" opacity=".1">
<path d="m414.22 26.741c0.022 0.0404 0.049 0.078 0.08 0.1119l-0.08-0.1119z" opacity=".1"/>
<path d="m419.22 33.804c0.605-0.9497 0.923-2.3462 0.096-3.1123-0.137-0.1245-0.293-0.2268-0.462-0.3032 0.011 0.7046-0.195 1.3954-0.589 1.979-0.604 0.9497-1.456 1.8195-1.591 2.9367s0.501 2.3222 0.318 3.4793c-0.27 1.6519-2.053 2.5217-3.605 3.1282-3.183 1.2529-6.954 2.4818-9.97 0.798-1.64-0.9257-2.881-2.6414-4.727-3.0005-1.695-0.3272-3.43 0.6544-4.52 1.995-1.015 1.4102-1.819 2.9614-2.387 4.6045-1.207 2.868-2.678 5.617-4.393 8.2115-1.066 1.596-2.475 3.2878-4.393 3.3676-2.618 0.1117-4.384-2.7771-6.915-3.4793-6.183-1.7317-2.61 5.0992-1.703 7.6768 0.899 2.5573 1.215 5.2843 0.923 7.9801-1.032 0.1899-2.095 0.1074-3.086-0.2396-0.99-0.347-1.874-0.9464-2.563-1.7395 0.575 1.2148 1.532 2.2068 2.723 2.8238 1.192 0.6169 2.553 0.8248 3.873 0.5917 0.293-2.6821-0.02-5.3957-0.915-7.9402-0.907-2.5775-4.48-9.4085 1.703-7.6848 2.531 0.7102 4.297 3.599 6.915 3.4873 1.91-0.0798 3.327-1.7716 4.385-3.3676 1.719-2.5961 3.193-5.3479 4.401-8.2194 0.569-1.6425 1.373-3.1934 2.387-4.6045 0.512-0.7013 1.199-1.2544 1.993-1.6033s1.666-0.4813 2.527-0.3838c1.846 0.3591 3.087 2.0748 4.727 2.9926 3.015 1.6917 6.756 0.4628 9.97-0.7981 1.592-0.6064 3.335-1.4763 3.597-3.1282 0.191-1.1571-0.469-2.3221-0.31-3.4793 0.159-1.1571 0.987-2.0189 1.591-2.9685z" opacity=".1"/>
<path d="m364.99 57.081c-0.437-0.2873-0.915-0.5347-1.328-0.8539 0.087 0.3561 0.247 0.6903 0.469 0.9816 0.533 0.5288 1.145 0.9704 1.814 1.3087 0.563 0.3692 1.068 0.8211 1.496 1.3407-0.555-1.1281-1.401-2.0869-2.451-2.7771z" opacity=".1"/>
</g>
<path d="m421.02 56.363s-6.486-4.5646-10.345 0.3591h-2.324c-2.323-6.6953-13.822-3.591-13.822-3.591l-15.676 2.5696 0.294 1.0214 15.382-1.2608s0.358 6.2803 2.443 8.3152 6.613 0.8937 6.613 0.8937c2.737-0.3511 4.05-4.6603 4.536-6.783l2.244 0.1277c-0.406 2.1626-0.677 6.384 2.992 7.8524 5.013 1.971 6.604-2.5138 6.604-2.5138s1.656-5.7935 1.059-6.9905z" fill="#000" opacity=".1"/>
<path d="m421.02 55.868s-6.486-4.5646-10.345 0.3591h-2.324c-2.323-6.6952-13.822-3.591-13.822-3.591l-15.676 2.5776 0.294 1.0134 15.382-1.2528s0.358 6.2723 2.443 8.3072 6.613 0.8938 6.613 0.8938c2.737-0.3511 4.05-4.6604 4.536-6.7831l2.244 0.1277c-0.406 2.1626-0.677 6.3841 2.992 7.8524 5.005 1.9711 6.557-2.5137 6.557-2.5137s1.703-5.7776 1.106-6.9906z" fill="#3F3D56"/>
<path d="m467.9 425.35c-2.3-0.104-14.857 5.218-14.857 5.218s-3.979 2.227-14.141 3.655c-6.636 0.942-7.519-2.266-7.336-4.604 0.062-0.767 0.231-1.522 0.501-2.243v-14.148s20.69-12.665 22.281-13.463c0.201-0.088 0.418-0.134 0.637-0.135 2.554-0.104 9.875 2.505 13.83 5.306 4.369 3.105 9.931 1.205 9.931 1.205s10.791-8.722 13.631-2.338c0.169 0.367 0.299 0.749 0.39 1.141 2.077 8.435-22.559 20.477-24.867 20.406z" fill="#3F3D56"/>
<path d="m432.06 416.62v-3.399s20.69-12.665 22.281-13.463c0.201-0.088 0.417-0.134 0.637-0.135 0.947 0.981 1.798 1.859 2.307 2.394 1.504 1.516-12.222 18.785-25.225 14.603z" fill="#000" opacity=".1"/>
<path d="m428.89 414.17-1.902-8.578s0-7.414-2.626-8.85-9.78-51.2-9.78-51.2 0.239-10.997-1.671-12.433c-1.91-1.437 0-3.017 0-3.017-7e-3 -1.583-0.293-3.152-0.843-4.636-0.627-1.614-1.062-3.296-1.298-5.011 0 0 0.955-3.592 0-4.541-0.668-0.67 0.183-1.923-1.376-4.429-1.006-1.489-2.23-2.818-3.629-3.942-5.403-4.581-0.072-56.467 1.393-69.802 0.222-1.987 0.358-3.112 0.358-3.112h12.732l1.591 5.738 2.539 10.605s1.671 1.109 1.671 2.546c0 1.436 10.011 31.792 10.011 31.792 0.734 1.223 1.372 2.501 1.909 3.823 0.239 0.957 2.388 2.633 2.388 2.633-0.41 0.901-0.621 1.879-0.621 2.869s0.211 1.968 0.621 2.869c1.424 2.865 5.482 14.819 4.05 20.556-1.432 5.738-3.103 6.217-3.103 6.217s-1.425 4.245 0.955 5.825c2.379 1.58 0.716 4.453 0.716 4.453l3.103 26.781s-0.238 11.971 3.334 16.256c3.573 4.285 4.051 14.579 4.051 14.579l-2.69 1.149-0.485 0.216-0.159 0.072s5.482 5.737 7.161 7.413c1.68 1.676-14.578 21.778-28.4 13.159z" fill="#65617D"/>
<path d="m457.26 401.04c-1.441 4.325-15.916 19.95-28.369 12.186l-1.902-8.579c3.406-2.769 14.029-10.853 23.276-12.05l-0.159 0.072 0.644 0.67-0.485 0.216-0.159 0.072s5.483 5.737 7.154 7.413z" fill="#000" opacity=".1"/>
<path d="m428.89 414.17-1.902-8.578c3.406-2.769 14.029-10.853 23.276-12.05l-0.159 0.072s5.483 5.737 7.162 7.413-14.555 21.762-28.377 13.143z" fill="#65617D"/>
<path d="m464.8 407.33c0.33 0 0.597-0.267 0.597-0.598s-0.267-0.599-0.597-0.599c-0.329 0-0.596 0.268-0.596 0.599s0.267 0.598 0.596 0.598z" fill="#fff"/>
<path d="m460.91 406.74c0.33 0 0.597-0.268 0.597-0.599 0-0.33-0.267-0.598-0.597-0.598-0.329 0-0.597 0.268-0.597 0.598 0 0.331 0.268 0.599 0.597 0.599z" fill="#fff"/>
<path d="m468.14 407.92c0.329 0 0.596-0.268 0.596-0.599 0-0.33-0.267-0.598-0.596-0.598-0.33 0-0.597 0.268-0.597 0.598 0 0.331 0.267 0.599 0.597 0.599z" fill="#fff"/>
<path d="m456.78 406.14c0.33 0 0.597-0.267 0.597-0.598s-0.267-0.599-0.597-0.599c-0.329 0-0.597 0.268-0.597 0.599s0.268 0.598 0.597 0.598z" fill="#fff"/>
<path d="m467.9 425.35c-2.3-0.104-14.857 5.218-14.857 5.218s-3.979 2.227-14.141 3.655c-6.636 0.942-7.519-2.266-7.336-4.604 1.68 0.761 3.576 0.897 5.347 0.383 4.528-1.189 20.188-3.703 20.188-3.703s10.345-3.782 10.648-5.937l24.628-16.559c0.169 0.367 0.299 0.749 0.39 1.141 2.077 8.435-22.559 20.477-24.867 20.406z" fill="#000" opacity=".1"/>
<path d="m456.28 237.7h-5.722v184.32h5.722v-184.32z" fill="#6C63FF"/>
<path d="m455.84 239.81c0.185-1.847 1.022-3.566 2.362-4.846 1.339-1.281 3.092-2.038 4.94-2.134 1.848-0.097 3.669 0.474 5.134 1.608s2.476 2.757 2.851 4.574c0.675 0.444 1.309 0.949 1.894 1.508 0.306 0.284 0.691 0.466 1.105 0.523 0.413 0.056 0.833-0.017 1.203-0.209 0.371-0.192 0.673-0.493 0.867-0.864 0.193-0.37 0.268-0.791 0.215-1.205-5e-3 -0.046-5e-3 -0.091 0-0.136-0.263-1.852-0.92-3.626-1.927-5.2-1.007-1.575-2.34-2.914-3.909-3.926-1.569-1.011-3.337-1.673-5.183-1.939-1.847-0.265-3.729-0.129-5.518 0.399-1.789 0.529-3.444 1.437-4.852 2.664s-2.536 2.744-3.308 4.447c-0.771 1.703-1.168 3.553-1.163 5.423 4e-3 1.871 0.411 3.719 1.191 5.418 0.752-2.388 2.175-4.508 4.098-6.105z" fill="#6C63FF"/>
<path d="m458.42 415.45h-9.652v13.51h9.652v-13.51z" fill="#6C63FF"/>
<path d="m407.83 74.47c-1.996 2.593-3.605 5.4641-4.774 8.5227-3.788 10.023-0.947 18.098-0.947 18.098s-34.489-7.6524-31.146-11.475c2.021-2.3222 3.692-11.252 4.695-17.923 0.652-4.3491 1.026-7.7407 1.026-7.7407s41.475-3.0244 31.146 10.518z" fill="#FABDBD"/>
<path d="m417.73 433.33c-0.425 2.346-1.652 4.47-3.469 6.009-2.626 2.226-27.653 3.024-32.738 1.117-5.085-1.908-21.294-2.634-25.353-2.793-4.058-0.16-5.634-3.903-6.517-5.738-0.247-0.527-0.063-1.684 0.35-3.072 1.011-3.408 3.366-8.212 3.868-8.722 0.382-0.384 0.748-1.948 0.994-3.32 0.215-1.189 0.358-2.235 0.358-2.235 10.878 7.438 25.186-5.203 25.186-5.203 0.536-0.287 1.148-0.398 1.751-0.319 2.737 0.335 5.721 3.934 5.721 5.522 0 1.94 7.544 5.586 7.544 5.586 2.149 2.474 11.682 7.095 11.682 7.095s6.517 0.159 9.382 2.625c0.48 0.423 0.846 0.961 1.063 1.564s0.278 1.251 0.178 1.884z" fill="#3F3D56"/>
<path d="m417.73 433.33c-0.425 2.346-1.652 4.47-3.469 6.009-2.626 2.226-27.653 3.024-32.738 1.117s-21.294-2.634-25.353-2.793c-4.058-0.16-5.634-3.903-6.517-5.738-0.247-0.527-0.063-1.684 0.35-3.072 3.572 0.879 7.092 1.958 10.544 3.232 5.085 1.995 15.653 4.86 17.507 3.99-0.032 0.024 25.042 7.038 39.676-2.745z" fill="#000" opacity=".1"/>
<path d="m409.39 311.5c-1.006-1.489-2.23-2.818-3.629-3.942-5.403-4.581-0.072-56.467 1.393-69.802 6.246-0.351 10.623-0.231 10.997 0.71 1.289 3.232-7.058 61.367-8.761 73.034z" fill="#000" opacity=".1"/>
<path d="m382.16 409.08v2.697c-17.507 18.011-24.509 11.851-27.295 5.044 0.215-1.189 0.359-2.235 0.359-2.235 10.878 7.438 25.185-5.203 25.185-5.203 0.538-0.281 1.15-0.387 1.751-0.303z" fill="#000" opacity=".1"/>
<path d="m416.78 242.68c-1.034 16.024-9.087 70.855-9.087 70.855s-4.528 20.078-5.483 20.796-6.907 4.788-6.907 4.788-0.239 9.329-2.149 11.97c-1.909 2.641-2.626 9.329-2.626 9.329s-3.095 13.382-4.05 20.077c-0.955 6.696-4.289 15.777-4.289 15.777v14.588c-22.011 22.639-27.43 7.086-28.703 0.063-0.185-0.97-0.313-1.951-0.382-2.936l12.398-75.539s2.618-3.591 2.14-5.499c-0.477-1.907 0.955-4.309 0.955-4.309l-0.04-4.301s2.905-3.823 0-5.977c-2.904-2.155 0-18.41 0-18.41s-3.294-9.321-1.591-11.97c1.703-2.65 0-6.935 1.186-9.329 1.185-2.394 0 0-4.29-6.456-2.244-3.368-4.153-9.472-5.474-14.532-1.21-4.652-1.918-8.419-1.918-8.419s58.886-8.363 60.318-4.788c0.182 1.402 0.179 2.821-8e-3 4.222z" fill="#65617D"/>
<path d="m407.83 74.47c-1.996 2.593-3.604 5.4641-4.774 8.5227-2.257 0.718-4.611 1.0814-6.979 1.0773-8.483 0-13.186-6.2644-17.189-13.103-0.183-0.3112-3.063 1.0454-3.23 0.7262 0.652-4.3491 1.026-7.7407 1.026-7.7407s41.475-3.0244 31.146 10.518z" fill="#000" opacity=".1"/>
<path d="m419.11 60.489c8e-3 5.3876-1.86 10.609-5.28 14.764-3.42 4.155-8.178 6.9833-13.455 7.997-5.276 1.0138-10.74 0.1497-15.449-2.4435s-8.369-6.7528-10.348-11.762c-1.978-5.009-2.152-10.553-0.492-15.677 1.661-5.1238 5.052-9.506 9.59-12.391 4.537-2.885 9.936-4.0921 15.265-3.4131 5.33 0.679 10.256 3.2015 13.93 7.1326 4.004 4.2787 6.235 9.9249 6.239 15.793z" fill="#FABDBD"/>
<path d="m416.78 242.68c-7.782 1.372-21.923 4.062-23.077 5.674-1.591 2.226-13.527 2.864-20.689 3.822-4.114 0.551-10.146 0.096-14.69-0.511-1.21-4.652-1.918-8.419-1.918-8.419s58.886-8.363 60.319-4.788c0.203 1.399 0.221 2.818 0.055 4.222z" fill="#000" opacity=".1"/>
<path d="m421.82 240.38s-26.523 4.301-28.115 6.535c-1.591 2.235-13.527 2.865-20.689 3.823-7.162 0.957-20.022-1.118-20.977-1.756-5.57-3.727-2.864-47.489-0.477-52.916 2.387-5.426 1.592-35.695-0.637-47.808-2.228-12.114 1.114-27.252 1.114-27.252s3.335-10.678 2.706-12.912 3.183-7.007 3.183-7.007 5.881-9.7272 8.897-11.172c0.552-0.2662 1.042-0.6484 1.434-1.1206 0.393-0.4722 0.68-1.0235 0.842-1.6166 0.565-1.7636 0.493-3.99 0.588-5.8653 0.16-3.1921 3.335-3.1921 3.335-3.1921 9.063 1.4285 30.358 14.819 30.358 14.819-0.796 3.0245 4.289 11.635 4.289 11.635 0.087 0.135 0.159 0.279 0.239 0.431 5.57 10.525 9.62 42.757 9.62 42.757s0.279 15.393 0.231 26.725c0 5.658-0.135 10.302-0.398 11.523-0.461 2.171 0.454 12.25 1.385 21.842 0.636 6.631 1.289 13.023 1.488 16.407 0.525 8.307 1.584 16.12 1.584 16.12z" fill="#6C63FF"/>
<path d="m398.61 196.4s-7.162 17.213-5.244 19.759 5.244-19.759 5.244-19.759z" fill="#000" opacity=".1"/>
<path d="m407.51 204.68s-8.101 12.768-5.085 15.297c3.016 2.53 5.085-15.297 5.085-15.297z" fill="#000" opacity=".1"/>
<path d="m382.16 406.06v4.301c-22.011 22.639-27.43 7.086-28.703 0.064 4.003 3.447 13.186 7.74 28.703-4.365z" fill="#000" opacity=".1"/>
<path d="m382.16 406.54v4.302c-22.011 22.639-27.43 7.086-28.703 0.064 4.003 3.447 13.186 7.74 28.703-4.366z" fill="#65617D"/>
<path d="m379.54 418.77c0.329 0 0.597-0.268 0.597-0.599 0-0.33-0.268-0.598-0.597-0.598-0.33 0-0.597 0.268-0.597 0.598 0 0.331 0.267 0.599 0.597 0.599z" fill="#fff"/>
<path d="m389.31 424.78c0.329 0 0.597-0.268 0.597-0.599 0-0.33-0.268-0.598-0.597-0.598-0.33 0-0.597 0.268-0.597 0.598 0 0.331 0.267 0.599 0.597 0.599z" fill="#fff"/>
<path d="m385.57 422.31c0.329 0 0.597-0.268 0.597-0.598 0-0.331-0.268-0.599-0.597-0.599-0.33 0-0.597 0.268-0.597 0.599 0 0.33 0.267 0.598 0.597 0.598z" fill="#fff"/>
<path d="m392.33 426.86c0.329 0 0.597-0.268 0.597-0.599 0-0.33-0.268-0.598-0.597-0.598-0.33 0-0.597 0.268-0.597 0.598 0 0.331 0.267 0.599 0.597 0.599z" fill="#fff"/>
<path d="m382.76 420.53c0.329 0 0.597-0.268 0.597-0.599s-0.268-0.598-0.597-0.598c-0.33 0-0.597 0.267-0.597 0.598s0.267 0.599 0.597 0.599z" fill="#fff"/>
<path d="m386.69 265.56s-5.746 14.444-12.557 14.986c-6.812 0.543 12.557-14.986 12.557-14.986z" fill="#000" opacity=".1"/>
<path d="m387.65 287.56s-9.064 15.457-11.762 15.617c-2.697 0.159 11.762-15.617 11.762-15.617z" fill="#000" opacity=".1"/>
<path d="m392.33 339.51s-11.236 5.897-8.674 6.384 8.674-6.384 8.674-6.384z" fill="#000" opacity=".1"/>
<path d="m370 339.51s11.292-4.62 13.273-4.62-13.273 4.62-13.273 4.62z" fill="#000" opacity=".1"/>
<path d="m431.55 320.71s7.75-1.915 8.069 0c0.318 1.915-8.069 0-8.069 0z" fill="#000" opacity=".1"/>
<path d="m438.98 330.13s-6.835 0.144-5.881 2.394c0.955 2.251 5.881-2.394 5.881-2.394z" fill="#000" opacity=".1"/>
<path d="m407.91 105.98c-5.873-2.306-16.114-6.7509-20.738-11.276-4.623-4.5247-13.106-6.0169-18.071-6.5596 0.565-1.7636 0.493-3.99 0.588-5.8653 0.16-3.1921 3.335-3.1921 3.335-3.1921 9.063 1.4285 30.358 14.819 30.358 14.819-0.796 3.0245 4.289 11.635 4.289 11.635 0.088 0.144 0.159 0.288 0.239 0.439z" fill="#000" opacity=".1"/>
<path d="m407.91 105.03c-5.873-2.307-16.114-6.7515-20.738-11.268-4.623-4.5167-13.106-6.025-18.071-6.5676 0.565-1.7636 0.493-3.99 0.588-5.8654 0.16-3.192 3.335-3.192 3.335-3.192 9.063 1.4285 30.358 14.819 30.358 14.819-0.796 3.0245 4.289 11.635 4.289 11.635 0.088 0.143 0.159 0.287 0.239 0.439z" fill="#6C63FF"/>
<path d="m418.74 207.87c-9.438-6.145-22.671-16.567-22.671-17.213 0-0.798-5.411-6.696-5.411-6.696l-10.648-19.399-3.334-7.98 9.549-10.039 20.825 13.382 5.571 10.199c1.848 1.315 3.576 2.792 5.164 4.413 0 5.658-0.135 10.302-0.398 11.523-0.493 2.139 0.422 12.218 1.353 21.81z" fill="#000" opacity=".1"/>
<path d="m377.16 154.64 2.856 9.927 11.141 17.484s5.403 5.898 5.403 6.696 19.894 16.255 28.289 20.556c8.396 4.301 19.099 7.837 19.894 10.933 0.796 3.096 5.571 26.206 19.099 18.713 13.527-7.493-3.812-24.387-3.812-24.387l-11.141-9.879s-23.769-18.65-25.79-24.858c-2.021-6.209-9.971-11.635-9.971-11.635l-5.57-10.207-20.817-13.382-9.581 10.039z" fill="#FABDBD"/>
<path d="m373.18 102.04s-19.385 8.93-13.345 23.142c6.04 14.213 19.225 40.371 19.225 40.371s-1.583-9.137 1.91-9.935c3.494-0.798 26.937 3.12 26.937 3.12s-6.438-10.613-5.324-16.67-8.419-45.287-29.403-40.028z" fill="#000" opacity=".1"/>
<path d="m375.09 100.61s-19.385 8.921-13.353 23.086 19.233 40.387 19.233 40.387-1.591-9.129 1.91-9.927 25.584 3.344 25.584 3.344-5.085-10.837-3.979-16.894-8.395-45.263-29.395-39.996z" fill="#000" opacity=".1"/>
<path d="m374.13 101.08s-19.385 8.93-13.345 23.143c6.04 14.212 19.225 40.371 19.225 40.371s-1.591-9.129 1.91-9.927c3.502-0.798 25.584 3.343 25.584 3.343s-5.085-10.837-3.979-16.894c1.106-6.056-8.411-45.294-29.395-40.036z" fill="#6C63FF"/>
<path d="m412.87 44.696c-2.697 0.8938-5.57 1.4125-7.957 0.0639-1.648-0.9177-2.889-2.6414-4.775-3.0005-1.695-0.3272-3.43 0.6544-4.52 1.995-1.013 1.4111-1.817 2.962-2.387 4.6045-1.204 2.8694-2.675 5.6188-4.393 8.2115-1.066 1.596-2.482 3.2878-4.392 3.3676-2.618 0.1197-4.385-2.7771-6.915-3.4793-6.183-1.7317-2.61 5.0992-1.703 7.6768 0.896 2.5441 1.212 5.2575 0.923 7.9401-0.204 0.0475-0.412 0.0795-0.621 0.0958-2.818-4.909-3.743-10.684-2.6-16.231s4.276-10.481 8.804-13.868 10.137-4.9895 15.765-4.506c5.628 0.4836 10.884 3.0202 14.771 7.1294z" fill="#000" opacity=".1"/>
<path d="m377.1 55.964c2.522 0.7023 4.289 3.599 6.907 3.4873 1.918-0.0878 3.334-1.7716 4.393-3.3756 1.718-2.5841 3.189-5.3255 4.392-8.1875 0.57-1.6425 1.374-3.1934 2.388-4.6045 1.098-1.3407 2.824-2.3222 4.519-1.995 1.847 0.3591 3.088 2.0828 4.775 3.0005 3.008 1.6838 6.748 0.4628 9.963-0.798 1.591-0.6065 3.334-1.4843 3.605-3.1282 0.191-1.1571-0.47-2.3222-0.319-3.4873 0.152-1.1651 1.011-1.9791 1.592-2.9367s0.915-2.3381 0.095-3.1122c-0.596-0.5586-1.528-0.5187-2.291-0.798-1.902-0.7422-2.388-3.3038-4.083-4.4529-1.83-1.2369-4.273-0.407-6.485-0.3032-3.183 0.1436-6.151-1.3247-9.104-2.4978-2.952-1.1731-6.318-2.0748-9.238-0.8459-1.743 0.7422-3.096 2.1387-4.576 3.3197-2.895 2.2857-6.35 3.7467-10.003 4.2295-1.798 0.2394-3.764 0.2793-5.18 1.4045-1.782 1.4204-2.053 4.0379-1.711 6.2962 0.342 2.2584 1.138 4.4768 0.955 6.7432-0.286 3.599-2.968 6.5596-3.859 10.055-0.198 0.5576-0.266 1.1532-0.198 1.7412 0.067 0.5879 0.268 1.1525 0.588 1.6503 0.529 0.5291 1.139 0.9708 1.806 1.3087 0.854 0.5581 1.576 1.2977 2.114 2.1665 0.537 0.8688 0.878 1.8455 0.997 2.861 0.12 1.0294 0 2.0748 0.159 3.0962 0.318 1.5623 1.233 2.938 2.549 3.8327 1.316 0.8948 2.929 1.2377 4.494 0.9554 0.285-2.6826-0.03-5.3952-0.923-7.9402-0.939-2.5855-4.504-9.3766 1.679-7.6848z" fill="#7C5C5C"/>
<g fill="#000" opacity=".1">
<path d="m414.22 26.741c0.022 0.0404 0.049 0.078 0.08 0.1119l-0.08-0.1119z" opacity=".1"/>
<path d="m419.22 33.804c0.605-0.9497 0.923-2.3462 0.096-3.1123-0.137-0.1245-0.293-0.2268-0.462-0.3032 0.011 0.7046-0.195 1.3954-0.589 1.979-0.604 0.9497-1.456 1.8195-1.591 2.9367s0.501 2.3222 0.318 3.4793c-0.27 1.6519-2.053 2.5217-3.605 3.1282-3.183 1.2529-6.954 2.4818-9.97 0.798-1.64-0.9257-2.881-2.6414-4.727-3.0005-1.695-0.3272-3.43 0.6544-4.52 1.995-1.015 1.4102-1.819 2.9614-2.387 4.6045-1.207 2.868-2.678 5.617-4.393 8.2115-1.066 1.596-2.475 3.2878-4.393 3.3676-2.618 0.1117-4.384-2.7771-6.915-3.4793-6.183-1.7317-2.61 5.0992-1.703 7.6768 0.899 2.5573 1.215 5.2843 0.923 7.9801-1.032 0.1899-2.095 0.1074-3.086-0.2396-0.99-0.347-1.874-0.9464-2.563-1.7395 0.575 1.2148 1.532 2.2068 2.723 2.8238 1.192 0.6169 2.553 0.8248 3.873 0.5917 0.293-2.6821-0.02-5.3957-0.915-7.9402-0.907-2.5775-4.48-9.4085 1.703-7.6848 2.531 0.7102 4.297 3.599 6.915 3.4873 1.91-0.0798 3.327-1.7716 4.385-3.3676 1.719-2.5961 3.193-5.3479 4.401-8.2194 0.569-1.6425 1.373-3.1934 2.387-4.6045 0.512-0.7013 1.199-1.2544 1.993-1.6033s1.666-0.4813 2.527-0.3838c1.846 0.3591 3.087 2.0748 4.727 2.9926 3.015 1.6917 6.756 0.4628 9.97-0.7981 1.592-0.6064 3.335-1.4763 3.597-3.1282 0.191-1.1571-0.469-2.3221-0.31-3.4793 0.159-1.1571 0.987-2.0189 1.591-2.9685z" opacity=".1"/>
<path d="m364.99 57.081c-0.437-0.2873-0.915-0.5347-1.328-0.8539 0.087 0.3561 0.247 0.6903 0.469 0.9816 0.533 0.5288 1.145 0.9704 1.814 1.3087 0.563 0.3692 1.068 0.8211 1.496 1.3407-0.555-1.1281-1.401-2.0869-2.451-2.7771z" opacity=".1"/>
</g>
<path d="m421.02 56.363s-6.486-4.5646-10.345 0.3591h-2.324c-2.323-6.6953-13.822-3.591-13.822-3.591l-15.676 2.5696 0.294 1.0214 15.382-1.2608s0.358 6.2803 2.443 8.3152 6.613 0.8937 6.613 0.8937c2.737-0.3511 4.05-4.6603 4.536-6.783l2.244 0.1277c-0.406 2.1626-0.677 6.384 2.992 7.8524 5.013 1.971 6.604-2.5138 6.604-2.5138s1.656-5.7935 1.059-6.9905z" fill="#000" opacity=".1"/>
<path d="m421.02 55.868s-6.486-4.5646-10.345 0.3591h-2.324c-2.323-6.6952-13.822-3.591-13.822-3.591l-15.676 2.5776 0.294 1.0134 15.382-1.2528s0.358 6.2723 2.443 8.3072 6.613 0.8938 6.613 0.8938c2.737-0.3511 4.05-4.6604 4.536-6.7831l2.244 0.1277c-0.406 2.1626-0.677 6.3841 2.992 7.8524 5.005 1.9711 6.557-2.5137 6.557-2.5137s1.703-5.7776 1.106-6.9906z" fill="#3F3D56"/>
<path d="m780.18 333.96c7.392 0 13.385-1.015 13.385-2.267 0-1.251-5.993-2.266-13.385-2.266s-13.384 1.015-13.384 2.266c0 1.252 5.992 2.267 13.384 2.267z" fill="#6C63FF" opacity=".1"/>
<path d="m771.18 321.14s7.632-0.232 9.931-1.876c2.3-1.643 11.746-3.607 12.311-0.973 0.565 2.633 11.475 13.103 2.857 13.175-8.619 0.072-20.022-1.341-22.322-2.745-2.299-1.405-2.777-7.581-2.777-7.581z" fill="#A8A8A8"/>
<path d="m796.44 330.55c-8.618 0.072-20.022-1.34-22.282-2.745-1.742-1.069-2.442-4.9-2.673-6.671h-0.255s0.486 6.176 2.777 7.581c2.292 1.404 13.703 2.817 22.321 2.745 2.491 0 3.35-0.91 3.303-2.218-0.39 0.798-1.337 1.292-3.191 1.308z" fill="#000" opacity=".2"/>
<path d="m89.682 355.85c13.576 0 24.581-1.865 24.581-4.165 0-2.301-11.005-4.166-24.581-4.166-13.576 0-24.581 1.865-24.581 4.166 0 2.3 11.005 4.165 24.581 4.165z" fill="#6C63FF" opacity=".1"/>
<path d="m73.162 332.31s14.029-0.431 18.255-3.455c4.2255-3.025 21.565-6.616 22.615-1.78 1.051 4.836 21.048 24.052 5.244 24.204-15.804 0.151-36.788-2.474-41.005-5.052-4.2175-2.577-5.1088-13.917-5.1088-13.917z" fill="#A8A8A8"/>
<path d="m119.56 349.6c-15.828 0.127-36.78-2.474-40.998-5.052-3.1831-1.963-4.4961-9.001-4.9258-12.249h-0.4695s0.8913 11.34 5.1088 13.917c4.2175 2.578 25.17 5.179 41.005 5.052 4.568-0.04 6.151-1.668 6.064-4.086-0.605 1.476-2.379 2.354-5.785 2.418z" fill="#000" opacity=".2"/>
</g>
<defs>
<clipPath id="a">
<rect width="902" height="490" fill="#fff"/>
</clipPath>
</defs>
</svg>
